<svg width="834" height="814" viewBox="0 0 834 814" fill="none" xmlns="http://www.w3.org/2000/svg">
<path d="M417 0.333008C362.282 0.333008 308.101 11.1104 257.548 32.0499C206.996 52.9893 161.063 83.6808 122.372 122.372C44.2317 200.512 0.333008 306.493 0.333008 417C0.333008 601.166 119.916 757.416 285.333 812.833C306.166 816.166 312.833 803.25 312.833 792V721.583C197.416 746.583 172.833 665.75 172.833 665.75C153.666 617.416 126.583 604.5 126.583 604.5C88.6664 578.666 129.5 579.5 129.5 579.5C171.166 582.416 193.25 622.416 193.25 622.416C229.5 685.75 290.75 667 314.5 657C318.25 629.916 329.083 611.583 340.75 601.166C248.25 590.75 151.166 554.916 151.166 396.166C151.166 349.916 167 312.833 194.083 283.25C189.916 272.833 175.333 229.5 198.25 173.25C198.25 173.25 233.25 162 312.833 215.75C345.75 206.583 381.583 202 417 202C452.416 202 488.25 206.583 521.166 215.75C600.75 162 635.75 173.25 635.75 173.25C658.666 229.5 644.083 272.833 639.916 283.25C667 312.833 682.833 349.916 682.833 396.166C682.833 555.333 585.333 590.333 492.416 600.75C507.416 613.666 521.166 639.083 521.166 677.833V792C521.166 803.25 527.833 816.583 549.083 812.833C714.5 757 833.666 601.166 833.666 417C833.666 362.282 822.889 308.101 801.95 257.548C781.01 206.996 750.319 161.063 711.628 122.372C672.936 83.6808 627.003 52.9893 576.451 32.0499C525.899 11.1104 471.717 0.333008 417 0.333008Z" fill="black"/>
</svg>
