<svg width="834" height="834" viewBox="0 0 834 834" fill="none" xmlns="http://www.w3.org/2000/svg">
<path d="M242 0.333008H592C725.333 0.333008 833.666 108.666 833.666 242V592C833.666 656.094 808.205 717.563 762.884 762.884C717.563 808.205 656.094 833.666 592 833.666H242C108.666 833.666 0.333008 725.333 0.333008 592V242C0.333008 177.906 25.7943 116.437 71.1155 71.1155C116.437 25.7943 177.906 0.333008 242 0.333008ZM233.666 83.6663C193.884 83.6663 155.731 99.4699 127.6 127.6C99.4699 155.731 83.6663 193.884 83.6663 233.666V600.333C83.6663 683.25 150.75 750.333 233.666 750.333H600.333C640.115 750.333 678.269 734.53 706.399 706.399C734.53 678.269 750.333 640.115 750.333 600.333V233.666C750.333 150.75 683.25 83.6663 600.333 83.6663H233.666ZM635.75 146.166C649.563 146.166 662.811 151.654 672.578 161.421C682.346 171.189 687.833 184.436 687.833 198.25C687.833 212.063 682.346 225.311 672.578 235.078C662.811 244.846 649.563 250.333 635.75 250.333C621.936 250.333 608.689 244.846 598.921 235.078C589.154 225.311 583.666 212.063 583.666 198.25C583.666 184.436 589.154 171.189 598.921 161.421C608.689 151.654 621.936 146.166 635.75 146.166ZM417 208.666C472.253 208.666 525.244 230.616 564.314 269.686C603.384 308.756 625.333 361.746 625.333 417C625.333 472.253 603.384 525.244 564.314 564.314C525.244 603.384 472.253 625.333 417 625.333C361.746 625.333 308.756 603.384 269.686 564.314C230.616 525.244 208.666 472.253 208.666 417C208.666 361.746 230.616 308.756 269.686 269.686C308.756 230.616 361.746 208.666 417 208.666ZM417 292C383.848 292 352.053 305.169 328.611 328.611C305.169 352.053 292 383.848 292 417C292 450.152 305.169 481.946 328.611 505.388C352.053 528.83 383.848 542 417 542C450.152 542 481.946 528.83 505.388 505.388C528.83 481.946 542 450.152 542 417C542 383.848 528.83 352.053 505.388 328.611C481.946 305.169 450.152 292 417 292Z" fill="black"/>
</svg>
