<svg width="750" height="750" viewBox="0 0 750 750" fill="none" xmlns="http://www.w3.org/2000/svg">
<path d="M666.667 0C688.768 0 709.964 8.77973 725.592 24.4078C741.22 40.0358 750 61.232 750 83.3333V666.667C750 688.768 741.22 709.964 725.592 725.592C709.964 741.22 688.768 750 666.667 750H83.3333C61.232 750 40.0358 741.22 24.4078 725.592C8.77973 709.964 0 688.768 0 666.667V83.3333C0 61.232 8.77973 40.0358 24.4078 24.4078C40.0358 8.77973 61.232 0 83.3333 0H666.667ZM645.833 645.833V425C645.833 388.975 631.522 354.425 606.049 328.951C580.575 303.478 546.025 289.167 510 289.167C474.583 289.167 433.333 310.833 413.333 343.333V297.083H297.083V645.833H413.333V440.417C413.333 408.333 439.167 382.083 471.25 382.083C486.721 382.083 501.558 388.229 512.498 399.169C523.438 410.108 529.583 424.946 529.583 440.417V645.833H645.833ZM161.667 231.667C180.232 231.667 198.037 224.292 211.164 211.164C224.292 198.037 231.667 180.232 231.667 161.667C231.667 122.917 200.417 91.25 161.667 91.25C142.991 91.25 125.08 98.6689 111.875 111.875C98.6689 125.08 91.25 142.991 91.25 161.667C91.25 200.417 122.917 231.667 161.667 231.667ZM219.583 645.833V297.083H104.167V645.833H219.583Z" fill="black"/>
</svg>
