<svg width="834" height="834" viewBox="0 0 834 834" fill="none" xmlns="http://www.w3.org/2000/svg">
<path d="M142.5 730.292C218.321 796.832 315.789 833.464 416.667 833.333C517.609 833.473 615.146 796.843 691.042 730.292C756.209 663.917 541.167 427.917 416.667 333.875C292.292 427.917 77.0837 663.917 142.417 730.292H142.5ZM530 230.083C616.792 332.917 789.834 588.208 740.959 678.417C800.878 604.402 833.497 512.02 833.334 416.792C833.41 361.631 822.486 307.009 801.202 256.12C779.918 205.232 748.701 159.098 709.375 120.417C709.375 120.417 708.417 119.667 706.542 118.958C703.409 117.869 700.109 117.333 696.792 117.375C676.209 117.375 627.834 132.458 529.917 230.083H530ZM126.875 119C124.875 119.708 124.042 120.417 123.875 120.458C84.5748 159.153 53.3788 205.292 32.1098 256.179C10.8407 307.066 -0.0749312 361.68 0.000387128 416.833C0.000387128 515.958 34.6671 606.875 92.3754 678.417C43.7921 587.917 216.709 332.833 303.542 230.125C205.625 132.417 157.167 117.417 136.667 117.417C133.342 117.308 130.028 117.861 126.917 119.042V118.958L126.875 119ZM416.667 123.333C416.667 123.333 314.417 63.5 234.584 60.6667C203.209 59.5417 184.042 70.9167 181.75 72.4167C256.25 22.4167 335.417 0 416.167 0H416.667C497.709 0 576.584 22.4167 651.584 72.375C649.25 70.7917 630.25 59.4583 598.834 60.625C518.959 63.4583 416.667 123.125 416.667 123.125V123.333Z" fill="black"/>
</svg>
